<mxfile host="65bd71144e">
    <diagram id="oFB6CcAC594AhaVThJXz" name="Seite-1">
        <mxGraphModel dx="968" dy="431" grid="1" gridSize="10" guides="1" tooltips="1" connect="1" arrows="1" fold="1" page="1" pageScale="1" pageWidth="1169" pageHeight="827" math="0" shadow="0">
            <root>
                <mxCell id="0"/>
                <mxCell id="1" parent="0"/>
                <mxCell id="AdF0Kggzv5YeNbQHZzFB-2" value="Distributor" style="rounded=0;whiteSpace=wrap;html=1;fillColor=#f8cecc;strokeColor=#b85450;fontStyle=1;fontSize=16;" parent="1" vertex="1">
                    <mxGeometry x="630" y="350" width="120" height="130" as="geometry"/>
                </mxCell>
                <mxCell id="AdF0Kggzv5YeNbQHZzFB-19" style="edgeStyle=none;rounded=0;orthogonalLoop=1;jettySize=auto;html=1;entryX=1.085;entryY=0.68;entryDx=0;entryDy=0;entryPerimeter=0;exitX=0;exitY=0.75;exitDx=0;exitDy=0;strokeColor=#0066CC;strokeWidth=2;" parent="1" source="AdF0Kggzv5YeNbQHZzFB-3" target="AdF0Kggzv5YeNbQHZzFB-17" edge="1">
                    <mxGeometry relative="1" as="geometry"/>
                </mxCell>
                <mxCell id="AdF0Kggzv5YeNbQHZzFB-3" value="&lt;font style=&quot;font-size: 16px&quot;&gt;Retailer&lt;/font&gt;" style="rounded=0;whiteSpace=wrap;html=1;fillColor=#dae8fc;strokeColor=#6c8ebf;fontStyle=1" parent="1" vertex="1">
                    <mxGeometry x="310" y="350" width="120" height="130" as="geometry"/>
                </mxCell>
                <mxCell id="AdF0Kggzv5YeNbQHZzFB-5" value="" style="shape=mxgraph.signs.transportation.train_2;html=1;pointerEvents=1;fillColor=#000000;strokeColor=none;verticalLabelPosition=bottom;verticalAlign=top;align=center;" parent="1" vertex="1">
                    <mxGeometry x="830" y="381" width="56" height="89" as="geometry"/>
                </mxCell>
                <mxCell id="AdF0Kggzv5YeNbQHZzFB-6" value="" style="verticalLabelPosition=bottom;verticalAlign=top;html=1;shape=mxgraph.basic.flash;strokeColor=#FF3333;" parent="1" vertex="1">
                    <mxGeometry x="856" y="340" width="30" height="80" as="geometry"/>
                </mxCell>
                <mxCell id="AdF0Kggzv5YeNbQHZzFB-7" value="" style="rounded=0;orthogonalLoop=1;jettySize=auto;html=1;endArrow=none;endFill=0;sketch=0;sourcePerimeterSpacing=0;targetPerimeterSpacing=0;exitX=1;exitY=0.75;exitDx=0;exitDy=0;strokeColor=#66B2FF;strokeWidth=2;" parent="1" source="AdF0Kggzv5YeNbQHZzFB-3" target="AdF0Kggzv5YeNbQHZzFB-9" edge="1">
                    <mxGeometry relative="1" as="geometry">
                        <mxPoint x="470" y="635" as="sourcePoint"/>
                    </mxGeometry>
                </mxCell>
                <mxCell id="AdF0Kggzv5YeNbQHZzFB-8" value="" style="rounded=0;orthogonalLoop=1;jettySize=auto;html=1;endArrow=halfCircle;endFill=0;entryX=0.5;entryY=0.5;endSize=6;strokeWidth=2;sketch=0;exitX=0;exitY=0.75;exitDx=0;exitDy=0;strokeColor=#66B2FF;" parent="1" source="AdF0Kggzv5YeNbQHZzFB-2" target="AdF0Kggzv5YeNbQHZzFB-9" edge="1">
                    <mxGeometry relative="1" as="geometry">
                        <mxPoint x="510" y="635" as="sourcePoint"/>
                    </mxGeometry>
                </mxCell>
                <mxCell id="AdF0Kggzv5YeNbQHZzFB-9" value="" style="ellipse;whiteSpace=wrap;html=1;align=center;aspect=fixed;resizable=0;points=[];outlineConnect=0;sketch=0;strokeColor=#66B2FF;strokeWidth=2;" parent="1" vertex="1">
                    <mxGeometry x="520" y="441.5" width="10" height="10" as="geometry"/>
                </mxCell>
                <mxCell id="AdF0Kggzv5YeNbQHZzFB-10" value="&lt;b style=&quot;font-size: 15px&quot;&gt;&lt;font color=&quot;#0066cc&quot; style=&quot;font-size: 15px&quot;&gt;Events:&lt;br style=&quot;font-size: 15px&quot;&gt;- Booking Trip Cancelled&lt;br&gt;- Refund Initiated&lt;br&gt;&lt;/font&gt;&lt;/b&gt;" style="rounded=0;whiteSpace=wrap;html=1;strokeColor=none;align=left;fontSize=15;fillColor=none;" parent="1" vertex="1">
                    <mxGeometry x="440" y="480" width="180" height="50" as="geometry"/>
                </mxCell>
                <mxCell id="AdF0Kggzv5YeNbQHZzFB-12" value="" style="html=1;verticalLabelPosition=bottom;align=center;labelBackgroundColor=#ffffff;verticalAlign=top;strokeWidth=2;strokeColor=#0080F0;shadow=0;dashed=0;shape=mxgraph.ios7.icons.mail;" parent="1" vertex="1">
                    <mxGeometry x="200" y="463.5" width="40" height="26.5" as="geometry"/>
                </mxCell>
                <mxCell id="AdF0Kggzv5YeNbQHZzFB-14" value="" style="rounded=0;orthogonalLoop=1;jettySize=auto;html=1;endArrow=none;endFill=0;sketch=0;sourcePerimeterSpacing=0;targetPerimeterSpacing=0;exitX=0;exitY=0.25;exitDx=0;exitDy=0;" parent="1" source="AdF0Kggzv5YeNbQHZzFB-2" target="AdF0Kggzv5YeNbQHZzFB-16" edge="1">
                    <mxGeometry relative="1" as="geometry">
                        <mxPoint x="530" y="205" as="sourcePoint"/>
                    </mxGeometry>
                </mxCell>
                <mxCell id="AdF0Kggzv5YeNbQHZzFB-15" value="" style="rounded=0;orthogonalLoop=1;jettySize=auto;html=1;endArrow=halfCircle;endFill=0;entryX=0.5;entryY=0.5;endSize=6;strokeWidth=1;sketch=0;exitX=1;exitY=0.25;exitDx=0;exitDy=0;" parent="1" source="AdF0Kggzv5YeNbQHZzFB-3" target="AdF0Kggzv5YeNbQHZzFB-16" edge="1">
                    <mxGeometry relative="1" as="geometry">
                        <mxPoint x="570" y="205" as="sourcePoint"/>
                    </mxGeometry>
                </mxCell>
                <mxCell id="AdF0Kggzv5YeNbQHZzFB-16" value="" style="ellipse;whiteSpace=wrap;html=1;align=center;aspect=fixed;resizable=0;points=[];outlineConnect=0;sketch=0;strokeColor=#000000;" parent="1" vertex="1">
                    <mxGeometry x="520" y="377" width="10" height="10" as="geometry"/>
                </mxCell>
                <mxCell id="AdF0Kggzv5YeNbQHZzFB-18" style="edgeStyle=none;rounded=0;orthogonalLoop=1;jettySize=auto;html=1;entryX=0;entryY=0.25;entryDx=0;entryDy=0;" parent="1" source="AdF0Kggzv5YeNbQHZzFB-17" target="AdF0Kggzv5YeNbQHZzFB-3" edge="1">
                    <mxGeometry relative="1" as="geometry"/>
                </mxCell>
                <mxCell id="AdF0Kggzv5YeNbQHZzFB-17" value="" style="sketch=0;aspect=fixed;pointerEvents=1;shadow=0;dashed=0;html=1;strokeColor=none;labelPosition=center;verticalLabelPosition=bottom;verticalAlign=top;align=center;fillColor=#00188D;shape=mxgraph.azure.user" parent="1" vertex="1">
                    <mxGeometry x="90" y="375" width="65.8" height="70" as="geometry"/>
                </mxCell>
            </root>
        </mxGraphModel>
    </diagram>
</mxfile>